<?xml version="1.0" encoding="UTF-8" standalone="no"?>
<!-- Created with Inkscape (http://www.inkscape.org/) -->

<svg
   version="1.1"
   id="svg2"
   xml:space="preserve"
   width="1488"
   height="2016"
   viewBox="0 0 1488 2016"
   sodipodi:docname="hospital-clinic-plus-seeklogo.com.ai"
   xmlns:inkscape="http://www.inkscape.org/namespaces/inkscape"
   xmlns:sodipodi="http://sodipodi.sourceforge.net/DTD/sodipodi-0.dtd"
   xmlns="http://www.w3.org/2000/svg"
   xmlns:svg="http://www.w3.org/2000/svg"><defs
     id="defs6"><clipPath
       clipPathUnits="userSpaceOnUse"
       id="clipPath16"><path
         d="M 0,1512 H 1116 V 0 H 0 Z"
         id="path14" /></clipPath></defs><sodipodi:namedview
     id="namedview4"
     pagecolor="#ffffff"
     bordercolor="#666666"
     borderopacity="1.0"
     inkscape:pageshadow="2"
     inkscape:pageopacity="0.0"
     inkscape:pagecheckerboard="0" /><g
     id="g8"
     inkscape:groupmode="layer"
     inkscape:label="hospital-clinic-plus-seeklogo.com"
     transform="matrix(1.3333333,0,0,-1.3333333,0,2016)"><g
       id="g10"><g
         id="g12"
         clip-path="url(#clipPath16)"><g
           id="g18"
           transform="translate(534.0381,965.498)"><path
             d="m 0,0 c -66.671,0 -120.719,-54.047 -120.719,-120.718 0,-66.671 54.048,-120.719 120.719,-120.719 66.671,0 120.718,54.048 120.718,120.719 C 120.718,-54.047 66.671,0 0,0 m 0,8.089 c 71.138,0 128.808,-57.669 128.808,-128.807 0,-71.139 -57.67,-128.807 -128.808,-128.807 -71.139,0 -128.808,57.668 -128.808,128.807 0,71.138 57.669,128.807 128.808,128.807"
             style="fill:#0994dc;fill-opacity:1;fill-rule:evenodd;stroke:none"
             id="path20" /></g><g
           id="g22"
           transform="translate(612.6992,886.8965)"><path
             d="m 0,0 h -33.414 v 33.415 c 0,6.151 -4.987,11.137 -11.138,11.137 l -68.22,10e-4 c -6.152,0 -11.139,-4.988 -11.139,-11.139 V 0 h -33.413 c -6.151,0 -11.138,-4.988 -11.138,-11.139 l 10e-4,-57.648 h 8.352 v 57.649 c 0,1.536 1.247,2.784 2.785,2.784 l 33.413,10e-4 h 8.355 V 0 33.415 c 0,1.537 1.246,2.784 2.784,2.784 h 68.22 c 1.535,0 2.784,-1.248 2.784,-2.785 L -41.767,0 V -8.353 H -33.414 0 c 1.535,0 2.785,-1.249 2.785,-2.786 v -57.648 h 8.354 v 57.649 C 11.139,-4.988 6.15,0 0,0"
             style="fill:#99d420;fill-opacity:1;fill-rule:evenodd;stroke:none"
             id="path24" /></g><g
           id="g26"
           transform="translate(612.6992,802.6631)"><path
             d="m 0,0 h -33.414 v -33.415 c 0,-6.151 -4.987,-11.137 -11.138,-11.137 l -68.22,-10e-4 c -6.152,0 -11.139,4.988 -11.139,11.139 V 0 h -33.413 c -6.151,0 -11.138,4.987 -11.138,11.139 l 10e-4,58.917 h 8.352 V 11.138 c 0,-1.536 1.247,-2.784 2.785,-2.784 l 33.413,-10e-4 h 8.355 V 0 -33.415 c 0,-1.537 1.246,-2.784 2.784,-2.784 h 68.22 c 1.535,0 2.784,1.248 2.784,2.785 L -41.767,0 V 8.353 H -33.414 0 c 1.535,0 2.785,1.249 2.785,2.786 v 58.917 h 8.354 V 11.138 C 11.139,4.987 6.15,0 0,0"
             style="fill:#99d420;fill-opacity:1;fill-rule:evenodd;stroke:none"
             id="path28" /></g><g
           id="g30"
           transform="translate(521.6826,841.4961)"><path
             d="m 0,0 -1.851,1.487 c -2.594,2.804 -4.129,6.218 -4.276,9.574 -1.419,0.692 -2.74,1.056 -3.886,1.071 0,0 -36.457,2.731 -36.597,3.288 L -7.865,13.563 C -6.721,13.55 -5.397,13.185 -3.98,12.492 -3.784,8.016 -1.119,3.434 3.237,0.336 4.845,-0.806 6.604,-1.667 8.413,-2.242 8.404,-1.38 8.393,-0.537 8.382,0.329 7.305,0.767 6.241,1.342 5.224,2.066 1.008,5.065 -1.151,9.623 -0.55,13.436 c -2.375,1.487 -4.836,2.429 -7.16,2.452 l -42.011,2.019 c -0.116,-0.594 -0.18,-1.204 -0.18,-1.831 0,-5.309 4.306,-9.614 9.616,-9.614 l 23.938,0.001 -24.904,-2.741 c -0.018,-0.47 0.008,-0.951 0.088,-1.437 0.65,-4.099 4.501,-6.895 8.602,-6.245 l 13.528,2.149 -9.678,-4.366 c 0.106,-0.373 0.244,-0.738 0.427,-1.092 1.541,-3.02 5.231,-4.215 8.247,-2.677 l 7.682,3.92 -4.483,-5.637 c 0.265,-0.279 0.558,-0.543 0.881,-0.775 2.749,-1.976 6.58,-1.353 8.559,1.393 l 5.502,7.639 C 0.966,-5.703 4.558,-7.124 8.476,-7.29 8.457,-5.936 8.441,-4.55 8.424,-3.178 5.333,-3.036 2.433,-1.95 0,0"
             style="fill:#0994dc;fill-opacity:1;fill-rule:evenodd;stroke:none"
             id="path32" /></g><g
           id="g34"
           transform="translate(596.2949,857.5723)"><path
             d="M 0,0 C 0,0.628 -0.063,1.236 -0.179,1.831 L -42.19,-0.188 c -2.324,-0.022 -4.786,-0.965 -7.16,-2.453 0.602,-3.812 -1.56,-8.371 -5.776,-11.369 -1.019,-0.725 -2.087,-1.302 -3.166,-1.741 -0.01,-0.862 -0.021,-1.71 -0.033,-2.568 1.814,0.569 3.575,1.434 5.186,2.579 4.356,3.099 7.02,7.678 7.219,12.156 1.418,0.693 2.739,1.058 3.885,1.07 l 38.743,1.858 C -3.43,-1.213 -39.89,-3.944 -39.89,-3.944 c -1.145,-0.014 -2.465,-0.379 -3.882,-1.071 -0.15,-3.357 -1.683,-6.771 -4.277,-9.575 l -1.853,-1.486 c -2.435,-1.953 -5.339,-3.039 -8.434,-3.178 -0.015,-1.371 -0.032,-2.749 -0.051,-4.112 3.922,0.165 7.517,1.583 10.381,3.883 l 5.505,-7.638 c 1.979,-2.746 5.807,-3.369 8.554,-1.393 0.328,0.232 0.616,0.495 0.884,0.775 l -4.486,5.637 7.684,-3.919 c 3.019,-1.539 6.706,-0.345 8.244,2.676 0.185,0.355 0.324,0.719 0.432,1.092 l -9.68,4.366 13.529,-2.15 c 4.1,-0.65 7.95,2.145 8.6,6.246 0.079,0.486 0.104,0.966 0.09,1.437 l -24.906,2.741 h 23.94 C -4.305,-9.613 0,-5.311 0,0"
             style="fill:#0994dc;fill-opacity:1;fill-rule:evenodd;stroke:none"
             id="path36" /></g><g
           id="g38"
           transform="translate(528.6929,749.1406)"><path
             d="M 0,0 C 0,2.166 1.072,4.346 2.7,5.683 0.583,6.008 -1.367,6.757 -3.057,7.843 -3.607,6.5 -3.887,5.107 -3.836,3.84 -3.596,-2.108 -0.251,-6.544 5.702,-6.544 l 0.001,0.093 C 2.49,-6.057 0,-3.32 0,0"
             style="fill:#0994dc;fill-opacity:1;fill-rule:evenodd;stroke:none"
             id="path40" /></g><g
           id="g42"
           transform="translate(534.3955,773.9375)"><path
             d="m 0,0 v 0.036 c 2.69,0 4.879,-2.19 4.879,-4.88 0.001,-2.142 -1.391,-4.471 -3.318,-5.332 1.883,-0.432 3.606,-1.423 5.063,-2.939 0.6,-0.626 1.121,-1.322 1.574,-2.055 3.198,2.311 5.27,5.985 5.27,10.326 C 13.468,2.583 7.426,8.624 0,8.624 V 8.587 c -4.164,0 -7.549,3.388 -7.549,7.552 0,2.692 1.419,5.154 3.546,6.565 -3.643,0.491 -6.976,1.625 -9.837,3.309 -2.028,-2.959 -3.27,-6.426 -3.27,-9.874 C -17.11,7.24 -8.899,0 0,0"
             style="fill:#0994dc;fill-opacity:1;fill-rule:evenodd;stroke:none"
             id="path44" /></g><g
           id="g46"
           transform="translate(523.333,825.1895)"><path
             d="m 0,0 c -0.37,-0.096 -0.719,-0.222 -1.043,-0.373 -0.539,0.253 -1.029,0.563 -1.472,0.919 0.661,0.234 1.4,0.372 2.193,0.372 0.109,0 0.216,-0.002 0.322,-0.007 L 0,4.957 C -0.401,5.006 -0.812,5.033 -1.229,5.033 -3.528,5.034 -5.604,4.239 -7.143,2.962 -7.757,2.474 -8.491,1.774 -8.702,1.438 c -1.804,-2.888 -2.848,-6.297 -2.848,-9.942 0,-7.294 4.423,-13.469 11.55,-16.607 v 11.203 c -1.777,1.381 -2.96,3.189 -2.96,5.404 0,0.118 0.007,0.225 0.009,0.341 -2.422,1.07 -4.239,3.156 -4.829,5.68 0.034,0.077 0.083,0.146 0.121,0.221 1.56,-1.859 4.057,-3.081 6.904,-3.081 0.255,0 0.506,0.01 0.755,0.029 z m 0,-25.111 v 11.203 c 2.75,-2.136 6.923,-3.248 10.348,-3.248 8.9,0 17.11,-9.055 17.11,-17.957 0,-4.598 -2.201,-8.743 -5.548,-11.684 -2.247,2.487 -5.34,4.188 -8.823,4.653 2.811,1.1 4.812,3.834 4.812,7.031 0,4.165 -3.386,7.796 -7.551,7.795 C 6.502,-27.22 3.01,-26.437 0,-25.111 M 2.331,0.161 C 2.091,0.187 1.849,0.201 1.602,0.201 1.036,0.201 0.499,0.128 0,0 v -5.314 c 3.218,0.244 5.924,2.03 7.139,4.507 C 6.375,2.193 3.538,4.514 0,4.957 V 0.911 C 0.933,0.868 1.792,0.641 2.514,0.288 2.458,0.241 2.388,0.207 2.331,0.161"
             style="fill:#0994dc;fill-opacity:1;fill-rule:evenodd;stroke:none"
             id="path48" /></g><g
           id="g50"
           transform="translate(533.6807,763.3896)"><path
             d="m 0,0 v 0.027 c -2.69,0 -4.878,2.989 -4.878,5.677 0,1.521 0.715,2.865 1.809,3.76 -2.959,0.664 -5.687,2.062 -7.95,3.96 -1.539,-2.189 -2.448,-4.848 -2.448,-7.72 0,-7.426 6.04,-12.934 13.467,-12.934 0,0.001 0.592,-0.086 0.854,-0.197 2.792,-0.732 4.85,-3.803 4.85,-6.822 0,-3.32 -2.49,-6.057 -5.704,-6.451 v -0.092 c 5.954,0 9.3,4.435 9.538,10.383 C 9.718,-5.96 5.954,0 0,0"
             style="fill:#0994dc;fill-opacity:1;fill-rule:evenodd;stroke:none"
             id="path52" /></g><g
           id="g54"
           transform="translate(544.7441,811.2856)"><path
             d="m 0,0 v -7.001 c -2.277,1.941 -4.905,3.328 -7.621,3.97 C -4.89,-2.612 -2.049,-1.591 0,0 m 0,13.904 c -0.499,0.129 -1.036,0.201 -1.603,0.201 -0.248,0 -0.49,-0.015 -0.729,-0.041 -0.057,0.047 -0.127,0.08 -0.183,0.128 0.722,0.353 1.582,0.579 2.515,0.622 v 4.047 C -3.538,18.419 -6.377,16.097 -7.141,13.097 -5.925,10.62 -3.217,8.833 0,8.589 Z M 1.042,13.531 C 0.718,13.682 0.37,13.808 0,13.904 V 8.589 C 0.248,8.571 0.499,8.561 0.752,8.561 3.602,8.561 6.1,9.783 7.659,11.642 7.695,11.566 7.744,11.498 7.78,11.42 7.188,8.897 5.372,6.811 2.949,5.741 2.951,5.625 2.959,5.518 2.959,5.399 2.959,3.186 1.777,1.379 0,0 v -7.001 c 0.971,-0.829 1.878,-1.757 2.702,-2.773 5.519,3.393 8.848,8.857 8.848,15.173 0,3.646 -1.046,7.055 -2.847,9.944 -0.212,0.336 -0.946,1.034 -1.56,1.523 -1.539,1.277 -3.617,2.071 -5.914,2.071 -0.417,0 -0.828,-0.026 -1.229,-0.076 v -4.047 c 0.106,0.005 0.213,0.008 0.322,0.008 0.792,0 1.531,-0.139 2.193,-0.372 C 2.07,14.094 1.581,13.784 1.042,13.531"
             style="fill:#0994dc;fill-opacity:1;fill-rule:evenodd;stroke:none"
             id="path56" /></g><g
           id="g58"
           transform="translate(535.5581,796.395)"><path
             d="m 0,0 -1.274,-0.013 c -0.816,0 -1.581,-0.173 -2.285,-0.472 0.1,-4.112 0.208,-8.229 0.32,-12.344 0.45,0.045 0.904,0.07 1.362,0.07 l 0.691,0.001 c 0.519,0.055 1.01,0.192 1.484,0.361 0.114,4.115 0.222,8.229 0.32,12.34 C 0.548,-0.026 0.488,0.014 0.419,0.038 0.278,0.03 0.141,0.008 0,0"
             style="fill:#0994dc;fill-opacity:1;fill-rule:evenodd;stroke:none"
             id="path60" /></g><g
           id="g62"
           transform="translate(534.7544,764.4077)"><path
             d="M 0,0 C 0.174,-0.019 0.346,-0.052 0.518,-0.082 0.603,2.575 0.684,5.232 0.765,7.888 0.599,7.937 0.435,7.983 0.259,8.007 h -0.528 c -0.623,0 -1.238,0.051 -1.847,0.121 C -2.034,5.487 -1.957,2.845 -1.87,0.203 -1.613,0.124 -1.346,0.08 -1.074,0.08 Z"
             style="fill:#0994dc;fill-opacity:1;fill-rule:evenodd;stroke:none"
             id="path64" /></g><g
           id="g66"
           transform="translate(534.938,754.6602)"><path
             d="m 0,0 c -0.123,-0.005 -0.245,-0.019 -0.369,-0.021 -0.214,-0.035 -0.45,-0.084 -0.522,-0.113 l -0.069,-0.028 -0.076,-0.02 c -0.225,-0.058 -0.443,-0.152 -0.66,-0.253 0.125,-3.483 0.251,-6.97 0.383,-10.457 0.319,0.044 0.626,0.112 0.921,0.206 C -0.253,-7.125 -0.127,-3.565 0,0"
             style="fill:#0994dc;fill-opacity:1;fill-rule:evenodd;stroke:none"
             id="path68" /></g><g
           id="g70"
           transform="translate(533.7319,741.1113)"><path
             d="m 0,0 c 0.117,-2.961 0.226,-5.924 0.351,-8.883 0.122,2.947 0.232,5.901 0.35,8.85 C 0.463,-0.031 0.232,-0.016 0,0"
             style="fill:#0994dc;fill-opacity:1;fill-rule:evenodd;stroke:none"
             id="path72" /></g><g
           id="g74"
           transform="translate(533.1377,849.103)"><path
             d="m 0,0 c -0.728,0 -1.427,0.127 -2.079,0.349 0.126,-13.38 0.317,-26.788 0.593,-40.219 0.682,-0.084 1.348,-0.127 1.98,-0.127 0.935,0 1.86,-0.116 2.775,-0.294 C 3.557,-26.4 3.753,-12.529 3.88,1.309 2.8,0.491 1.46,0 0,0"
             style="fill:#0994dc;fill-opacity:1;fill-rule:evenodd;stroke:none"
             id="path76" /></g><g
           id="g78"
           transform="translate(536.3691,851.1948)"><path
             d="M 0,0 C 0.124,0.143 0.242,0.291 0.354,0.445 V 7.786 C -0.242,8.609 -1.042,9.295 -2.008,9.756 -1.586,9.716 -1.167,9.63 -0.75,9.482 -0.354,9.341 0.016,9.156 0.354,8.935 v 1.541 c -0.817,0.376 -1.727,0.585 -2.685,0.585 -3.559,0 -6.442,-2.884 -6.442,-6.442 0,-3.559 2.883,-6.441 6.441,-6.441 0.959,0 1.869,0.209 2.686,0.585 V 0.212 C 0.239,0.137 0.121,0.066 0,0 m 0.354,8.935 v 1.541 C 2.571,9.458 4.11,7.218 4.11,4.619 4.11,2.018 2.571,-0.22 0.354,-1.237 v 1.449 c 0.92,0.601 1.66,1.494 2.059,2.607 0.824,2.317 -0.088,4.828 -2.059,6.116 m 0,-8.49 c 0.341,0.47 0.624,0.994 0.829,1.569 0.719,2.018 0.339,4.159 -0.829,5.772 z"
             style="fill:#0994dc;fill-opacity:1;fill-rule:evenodd;stroke:none"
             id="path80" /></g><g
           id="g82"
           transform="translate(569.667,642.4434)"><path
             d="m 0,0 c -2.63,0 -8.292,2.878 -8.292,11.016 0,2.537 1.021,5.662 3.094,7.642 2.32,2.196 4.425,1.825 4.888,1.825 3.435,0 8.262,-3.991 8.262,-10.767 C 7.952,6.962 6.807,0 0,0 m -0.247,-1.176 c 4.269,0 7.023,1.857 8.91,4.364 1.609,2.166 2.32,4.517 2.32,6.775 0,4.269 -1.979,7.303 -4.238,9.252 -2.444,2.042 -4.981,2.444 -6.932,2.444 -2.597,0 -5.662,-0.619 -8.384,-3.93 -2.382,-2.877 -2.878,-5.817 -2.878,-7.704 0,-4.517 2.352,-7.859 4.55,-9.189 2.443,-1.517 5.135,-2.012 6.652,-2.012 m -19.03,5.013 c 0,-1.608 -0.123,-2.29 -0.835,-2.723 -1.083,-0.619 -2.599,-1.051 -5.075,-1.051 -2.011,0 -3.898,0.71 -5.445,2.196 -1.918,1.825 -2.94,5.012 -2.94,8.663 0,2.785 1.052,5.353 2.723,7.117 1.857,1.981 3.775,2.506 5.91,2.506 2.785,0 4.703,-1.393 5.631,-2.537 1.083,-1.33 1.609,-2.785 1.857,-3.651 0.031,-0.155 0.124,-0.248 0.247,-0.248 l 0.558,0.063 c 0.123,0 0.154,0.123 0.154,0.277 l -0.092,5.91 c 0,0.217 -0.062,0.371 -0.279,0.371 -0.186,0 -0.309,-0.154 -0.433,-0.278 l -0.464,-0.556 c -0.186,-0.248 -0.372,-0.31 -0.712,-0.032 -1.052,0.805 -3.435,1.795 -6.095,1.795 -3.713,0 -6.498,-1.052 -8.695,-2.939 -2.29,-2.042 -3.497,-5.044 -3.497,-7.859 0,-3.744 0.96,-6.375 2.847,-8.509 2.135,-2.506 5.91,-3.528 8.664,-3.528 3.465,0 5.94,0.712 8.447,1.981 0.309,0.123 0.495,0.248 0.495,0.495 0,0.247 -0.124,0.556 -0.124,0.99 v 4.084 c 0,0.96 0.402,1.176 0.959,1.176 h 1.207 c 0.185,0 0.216,0.124 0.216,0.247 V 8.54 c 0,0.124 -0.031,0.217 -0.247,0.217 -0.433,0 -1.423,-0.093 -3.651,-0.093 -2.104,0 -3.496,0.093 -3.93,0.093 -0.154,0 -0.185,-0.062 -0.185,-0.247 V 7.735 c 0,-0.124 0.061,-0.185 0.216,-0.185 h 1.3 c 0.928,0 1.268,-0.31 1.268,-1.423 z M -51.022,0 c -2.63,0 -8.292,2.878 -8.292,11.016 0,2.537 1.021,5.662 3.093,7.642 2.321,2.196 4.425,1.825 4.889,1.825 3.435,0 8.262,-3.991 8.262,-10.767 C -43.07,6.962 -44.215,0 -51.022,0 m -0.248,-1.176 c 4.27,0 7.024,1.857 8.911,4.364 1.609,2.166 2.321,4.517 2.321,6.775 0,4.269 -1.981,7.303 -4.239,9.252 -2.445,2.042 -4.982,2.444 -6.931,2.444 -2.599,0 -5.662,-0.619 -8.385,-3.93 -2.383,-2.877 -2.878,-5.817 -2.878,-7.704 0,-4.517 2.352,-7.859 4.549,-9.189 2.444,-1.517 5.136,-2.012 6.652,-2.012 m -28.466,12.594 c 0,-1.888 -0.093,-9.592 -0.093,-10.18 0,-0.402 -0.185,-0.836 -1.33,-0.836 h -1.486 c -0.185,0 -0.216,-0.062 -0.216,-0.216 v -0.774 c 0,-0.154 0.031,-0.217 0.248,-0.217 0.402,0 1.516,0.094 3.96,0.094 3.311,0 12.222,-0.031 13.027,-0.094 0.185,0.836 1.423,5.942 1.516,6.159 0.03,0.185 0.03,0.215 -0.062,0.278 l -0.495,0.184 c -0.124,0.063 -0.186,0 -0.248,-0.123 -0.433,-1.207 -2.29,-4.92 -4.115,-5.198 -0.959,-0.124 -7.086,-0.061 -7.766,0 -0.093,1.269 -0.093,7.952 -0.093,8.478 v 2.661 c 0,2.166 0.093,6.839 0.093,7.24 0,0.897 0.124,1.207 1.083,1.207 h 1.856 c 0.248,0 0.309,0.093 0.309,0.247 v 0.712 c 0,0.155 -0.031,0.247 -0.278,0.247 -0.278,0 -1.578,-0.092 -4.579,-0.092 -2.569,0 -3.682,0.092 -4.023,0.092 -0.185,0 -0.217,-0.06 -0.217,-0.216 v -0.68 c 0,-0.155 0.032,-0.31 0.217,-0.31 h 1.454 c 0.929,0 1.083,-0.31 1.145,-1.114 0.031,-0.557 0.093,-3.836 0.093,-5.817 z M 10.38,35.893 c 4.363,0 7.364,2.505 9.221,5.197 0.093,0.155 0.031,0.217 -0.062,0.279 l -0.402,0.309 c -0.093,0.093 -0.155,0.062 -0.247,-0.092 -1.424,-2.012 -4.147,-3.93 -7.643,-3.93 -2.073,0 -3.837,0.247 -5.941,2.599 -2.412,2.661 -2.97,6.157 -2.97,7.952 -0.03,4.518 2.196,9.438 7.735,9.438 2.444,0 4.084,-1.053 5.384,-2.383 1.3,-1.331 1.98,-2.817 2.413,-3.837 0.094,-0.247 0.154,-0.279 0.31,-0.247 l 0.464,0.123 c 0.124,0.031 0.154,0.154 0.124,0.309 -0.156,0.867 -0.774,5.415 -0.774,6.003 0,0.434 -0.061,0.494 -0.341,0.494 -0.277,0 -0.339,0 -0.402,-0.185 l -0.247,-0.897 c -0.062,-0.216 -0.216,-0.248 -0.618,0 -1.115,0.65 -3.436,1.702 -6.251,1.702 -3.372,0 -6.157,-1.455 -7.736,-3.125 -2.227,-2.352 -3.156,-5.323 -3.156,-8.2 0,-2.97 1.084,-6.559 3.311,-8.664 1.857,-1.701 4.177,-2.845 7.828,-2.845 M -9.391,47.154 c 0,-1.638 -0.092,-8.322 -0.155,-8.787 -0.123,-0.804 -0.773,-0.896 -1.392,-0.896 h -1.733 c -0.155,0 -0.247,-0.063 -0.247,-0.186 v -0.836 c 0,-0.123 0.092,-0.185 0.247,-0.185 0.34,0 1.671,0.092 4.61,0.092 2.693,0 3.93,-0.092 4.301,-0.092 0.187,0 0.279,0.062 0.279,0.185 v 0.805 c 0,0.154 -0.092,0.217 -0.248,0.217 h -1.268 c -0.99,0 -1.455,0.154 -1.455,1.113 0,0.341 -0.092,7.488 -0.092,7.797 v 2.383 c 0,0.371 0.092,7.209 0.092,7.518 0,0.619 0.465,0.866 1.084,0.866 h 1.453 c 0.155,0 0.248,0.063 0.248,0.217 v 0.774 c 0,0.124 -0.062,0.216 -0.217,0.216 -0.432,0 -1.423,-0.092 -4.177,-0.092 -2.877,0 -4.455,0.092 -4.826,0.092 -0.124,0 -0.217,-0.061 -0.217,-0.185 v -0.836 c 0,-0.123 0.093,-0.186 0.248,-0.186 h 1.794 c 1.176,0 1.485,-0.308 1.547,-1.051 0.032,-0.464 0.124,-6.034 0.124,-6.777 z m -24.753,1.826 c 0,-5.507 -0.062,-9.035 -0.124,-9.623 -0.154,-1.515 -0.495,-1.886 -1.392,-1.886 h -1.052 c -0.155,0 -0.185,-0.094 -0.185,-0.186 V 36.48 c 0,-0.154 0.03,-0.216 0.154,-0.216 0.309,0 2.445,0.092 3.094,0.092 0.836,0 2.692,-0.092 3.002,-0.092 0.216,0 0.247,0.062 0.247,0.248 v 0.679 c 0,0.186 -0.031,0.28 -0.247,0.28 h -0.929 c -0.835,0 -1.021,0.588 -1.145,1.794 -0.061,0.619 -0.309,5.663 -0.309,8.54 v 6.869 h 0.186 c 0.185,-0.248 5.879,-7.396 6.219,-7.705 0.186,-0.186 2.444,-3.031 4.61,-5.724 1.918,-2.413 3.744,-4.703 3.775,-4.765 0.093,-0.124 0.371,-0.496 0.742,-0.496 0.124,0 0.155,0.311 0.155,0.744 V 48.3 c 0,2.011 0,5.074 0.124,7.147 0.062,1.176 0.371,1.701 1.207,1.701 h 0.835 c 0.124,0 0.186,0.094 0.186,0.217 v 0.774 c 0,0.124 -0.031,0.216 -0.248,0.216 -0.402,0 -1.145,-0.092 -3.001,-0.092 -1.98,0 -2.97,0.092 -3.404,0.092 -0.124,0 -0.185,-0.061 -0.185,-0.185 v -0.805 c 0,-0.154 0.061,-0.217 0.185,-0.217 h 0.991 c 0.866,0 1.454,-0.432 1.701,-1.207 0.186,-0.525 0.341,-3.557 0.371,-4.763 0.062,-1.547 0.094,-3.064 0.094,-5.818 v -3.682 h -0.124 c -0.743,0.99 -5.972,7.395 -6.312,7.828 -0.341,0.433 -6.344,8.23 -6.498,8.416 -0.247,0.279 -0.495,0.402 -0.897,0.402 -0.371,0 -1.021,-0.061 -2.073,-0.061 -1.052,0 -1.733,0.031 -2.197,0.061 -0.464,0 -0.712,0.031 -0.867,0.031 -0.154,0 -0.185,-0.061 -0.185,-0.185 v -0.805 c 0,-0.093 0.031,-0.217 0.185,-0.217 l 1.269,-0.03 c 1.114,-0.031 2.042,-1.052 2.042,-2.878 z m -11.324,-1.826 c 0,-1.638 -0.093,-8.322 -0.155,-8.787 -0.124,-0.804 -0.773,-0.896 -1.392,-0.896 h -1.733 c -0.155,0 -0.248,-0.063 -0.248,-0.186 v -0.836 c 0,-0.123 0.093,-0.185 0.248,-0.185 0.34,0 1.671,0.092 4.61,0.092 2.692,0 3.93,-0.092 4.301,-0.092 0.186,0 0.278,0.062 0.278,0.185 v 0.805 c 0,0.154 -0.092,0.217 -0.247,0.217 h -1.269 c -0.99,0 -1.454,0.154 -1.454,1.113 0,0.341 -0.093,7.488 -0.093,7.797 v 2.383 c 0,0.371 0.093,7.209 0.093,7.518 0,0.619 0.464,0.866 1.083,0.866 h 1.454 c 0.155,0 0.248,0.063 0.248,0.217 v 0.774 c 0,0.124 -0.062,0.216 -0.217,0.216 -0.433,0 -1.423,-0.092 -4.177,-0.092 -2.877,0 -4.455,0.092 -4.827,0.092 -0.123,0 -0.216,-0.061 -0.216,-0.185 v -0.836 c 0,-0.123 0.093,-0.186 0.247,-0.186 h 1.795 c 1.176,0 1.485,-0.308 1.547,-1.051 0.031,-0.464 0.124,-6.034 0.124,-6.777 z m -19.555,1.331 c 0,-1.887 -0.093,-9.591 -0.093,-10.179 0,-0.403 -0.186,-0.835 -1.331,-0.835 h -1.485 c -0.185,0 -0.216,-0.063 -0.216,-0.217 V 36.48 c 0,-0.154 0.031,-0.216 0.247,-0.216 0.402,0 1.516,0.092 3.961,0.092 3.31,0 12.222,-0.03 13.026,-0.092 0.186,0.836 1.423,5.94 1.516,6.157 0.031,0.185 0.031,0.216 -0.061,0.278 l -0.496,0.186 c -0.124,0.062 -0.185,0 -0.247,-0.123 -0.434,-1.207 -2.29,-4.92 -4.115,-5.199 -0.96,-0.124 -7.086,-0.061 -7.767,0 -0.092,1.269 -0.092,7.953 -0.092,8.478 v 2.66 c 0,2.166 0.092,6.839 0.092,7.24 0,0.899 0.124,1.207 1.084,1.207 h 1.856 c 0.247,0 0.309,0.094 0.309,0.248 v 0.711 c 0,0.156 -0.031,0.248 -0.278,0.248 -0.279,0 -1.578,-0.092 -4.58,-0.092 -2.568,0 -3.682,0.092 -4.022,0.092 -0.186,0 -0.217,-0.061 -0.217,-0.216 v -0.68 c 0,-0.155 0.031,-0.311 0.217,-0.311 h 1.454 c 0.928,0 1.083,-0.308 1.145,-1.113 0.031,-0.556 0.093,-3.837 0.093,-5.816 z m -14.79,-12.592 c 4.363,0 7.364,2.505 9.22,5.197 0.093,0.155 0.031,0.217 -0.062,0.279 l -0.402,0.309 c -0.092,0.093 -0.154,0.062 -0.247,-0.092 -1.424,-2.012 -4.146,-3.93 -7.643,-3.93 -2.073,0 -3.837,0.247 -5.94,2.599 -2.414,2.661 -2.971,6.157 -2.971,7.952 -0.031,4.518 2.197,9.438 7.735,9.438 2.445,0 4.085,-1.053 5.384,-2.383 1.3,-1.331 1.98,-2.817 2.414,-3.837 0.093,-0.247 0.155,-0.279 0.309,-0.247 l 0.464,0.123 c 0.124,0.031 0.155,0.154 0.124,0.309 -0.155,0.867 -0.774,5.415 -0.774,6.003 0,0.434 -0.062,0.494 -0.34,0.494 -0.278,0 -0.34,0 -0.402,-0.185 l -0.247,-0.897 c -0.063,-0.216 -0.217,-0.248 -0.62,0 -1.113,0.65 -3.434,1.702 -6.25,1.702 -3.372,0 -6.157,-1.455 -7.735,-3.125 -2.228,-2.352 -3.156,-5.323 -3.156,-8.2 0,-2.97 1.083,-6.559 3.311,-8.664 1.856,-1.701 4.177,-2.845 7.828,-2.845"
             style="fill:#231f20;fill-opacity:1;fill-rule:evenodd;stroke:none"
             id="path84" /></g><g
           id="g86"
           transform="translate(534.0381,972.5732)"><path
             d="m 0,0 c -70.579,0 -127.794,-57.215 -127.794,-127.793 0,-70.579 57.215,-127.794 127.794,-127.794 70.578,0 127.794,57.215 127.794,127.794 C 127.794,-57.215 70.578,0 0,0 m 0,5.379 c 73.549,0 133.172,-59.623 133.172,-133.172 0,-73.549 -59.623,-133.173 -133.172,-133.173 -73.549,0 -133.172,59.624 -133.172,133.173 0,73.549 59.623,133.172 133.172,133.172"
             style="fill:#99d420;fill-opacity:1;fill-rule:evenodd;stroke:none"
             id="path88" /></g></g></g></g></svg>
